<svg width="45" height="51" viewBox="0 0 45 51" fill="none" xmlns="http://www.w3.org/2000/svg">
<ellipse cx="22.6904" cy="22.1498" rx="21.7247" ry="20.8321" fill="white"/>
<g style="mix-blend-mode:darken" opacity="0.42">
<path d="M33.8034 20.3428L33.591 18.7731C33.4365 18.0464 33.2048 17.4263 32.973 16.9127L32.6544 16.2054C32.4227 15.7403 32.1427 15.2849 31.8434 14.8586C31.3123 14.0447 30.6847 13.3568 29.9992 12.7851C29.1881 12.1166 28.2902 11.603 27.3632 11.2154L26.2722 10.7891C25.297 10.4694 24.4569 10.3628 23.7521 10.2852C23.3466 9.7814 22.8348 9.38414 22.2458 9.14191C20.9713 8.44428 20.141 8.60896 19.803 8.61865C19.6292 8.61865 19.1368 8.61869 18.4706 8.78341C16.8388 9.19036 16.1919 9.8589 15.6705 10.2077C15.1877 10.5275 14.6663 10.8763 14.116 11.3317C13.7201 11.6321 13.4208 11.9324 13.1794 12.2231C12.5711 12.8917 12.0787 13.6184 11.7311 14.2676C11.3352 15.004 10.92 15.9148 10.611 16.9903C10.3503 17.9108 10.1862 18.8894 10.1476 19.8874V21.7768L10.1862 23.424L10.3117 24.3833C10.4855 25.4394 10.8524 26.3696 11.2483 27.1544L11.509 27.6583L12.5711 29.2667L13.276 30.1388C13.6332 30.536 14.0773 30.9623 14.5987 31.3499C15.1201 31.7375 15.7284 32.1154 16.4333 32.4254L17.7368 32.8809L18.7506 33.1618L19.7065 33.4138C20.4596 33.5979 21.2031 33.7141 21.9369 33.7723L23.1728 33.8014L24.4473 33.685C25.4032 33.5203 25.9728 33.22 26.2432 33.1134L26.5135 33.0068L27.6143 32.532C28.1164 32.2898 28.6764 31.9797 29.2364 31.5825C29.8543 31.1367 30.3564 30.6523 30.7909 30.1678L31.5344 29.2183L31.882 28.7435C32.2585 28.1912 32.5675 27.6292 32.8089 27.0866L33.2241 26.0305L33.6103 24.3445L33.7648 22.6004L33.8034 21.7381V20.3719V20.3428ZM25.4804 19.2091V19.839L25.4418 20.7498L25.239 21.9706L25.0556 22.4938L25.0073 22.5326L24.7176 22.6973L24.0804 22.9783L23.7231 23.0946L23.308 23.1334L22.5258 23.114L21.5024 23.0655L20.8844 22.9783L20.0927 22.862L19.8223 22.7264L19.7354 22.4841L19.7065 22.3582L19.6582 21.4086L19.6775 20.5657V19.4126L19.8223 18.841L19.9092 18.4243L19.9961 18.1143L20.1217 17.872H21.6279L22.1107 17.9883L23.4431 18.2887L24.5149 18.589L24.9397 18.7537L25.297 18.996L25.4611 19.1801L25.4804 19.2091Z" fill="#8C6900"/>
</g>
<g style="mix-blend-mode:darken" opacity="0.42">
<path d="M34.566 20.1103L34.4308 18.9863L34.2957 17.9883L34.2377 17.6394C34.1025 16.8062 33.8322 16.1958 33.7067 15.876C33.4556 15.2656 33.1467 14.6939 32.7991 14.1997L32.326 13.5603C32.2197 13.4246 31.9397 13.0467 31.399 12.6204L30.9742 12.3103C30.9742 12.3103 31.3411 12.2618 29.9797 11.8258C29.69 11.7386 29.3521 11.6418 28.85 11.6321L28.5217 11.2832L28.4155 11.196L28.3865 11.1476C27.8362 10.3918 27.1506 9.9364 26.8803 9.77168C26.832 9.74261 26.8803 9.46163 25.8665 9.23878C25.6058 9.11282 25.094 8.96748 24.1285 9.06438C22.0139 9.27754 20.4787 11.1767 20.6911 13.2986C20.7974 14.3838 21.3477 15.314 22.1395 15.9342L22.294 16.0795L22.4677 16.2345L22.854 16.9806L23.4622 18.153L23.7036 18.6472L23.9161 19.1413C23.9643 19.2479 23.974 19.2479 23.974 19.2188V19.6258L23.8774 20.5269L23.723 21.6024L23.4526 23.0461L23.3271 23.55L23.0567 24.2767L22.854 24.7805L22.4677 25.546L22.1684 25.9917L22.0526 26.1564L21.705 26.4761L20.7298 27.1447L19.629 27.6389L19.1945 27.7745C19.0883 27.8036 19.127 27.8036 19.1656 27.8036H18.818C18.7407 27.7746 18.538 27.5614 17.2152 27.7842C15.1199 28.1331 13.7006 30.129 14.0579 32.2316C14.3668 34.092 15.9503 35.4097 17.7655 35.4485L18.0552 35.4873L18.8373 35.526H19.6677C20.3242 35.4679 20.7394 35.3516 21.0194 35.2838L22.1684 34.935C22.9119 34.6734 23.6264 34.3439 24.3312 33.9661H24.3505C25.963 34.4602 25.963 34.1308 25.992 34.1308C26.8127 34.1114 27.4113 33.9079 27.8651 33.7238C28.7341 33.375 29.3617 32.9583 29.9797 32.4933L31.2928 31.3984L31.9494 30.7395L32.5287 30.1097C33.0501 29.4992 33.446 28.8501 33.7453 28.2203L34.1798 27.1641C34.4984 26.2436 34.5563 25.4975 34.595 24.9646L34.6626 24.1604V22.0869L34.5564 20.0909L34.566 20.1103Z" fill="#22262A" fill-opacity="0.23"/>
</g>
<path d="M28.5506 18.3371L28.2416 17.8429L28.0968 17.6104L27.5657 16.9224L27.363 16.5833L27.1795 16.2927C27.1313 16.2248 27.0733 16.157 27.0154 16.0892L26.5809 15.7404L26.2719 15.5175C25.5284 14.9458 24.5919 14.5098 23.4429 14.3354C22.7284 14.2385 21.9752 14.2385 21.2607 14.2385C19.9669 14.2579 18.702 14.7327 17.5627 15.44C16.7903 15.8954 16.2206 16.4573 15.7378 17.029C15.5254 17.31 15.2454 17.6685 15.0233 18.182L14.724 19.3351C14.6564 19.8971 14.6564 20.556 14.7047 21.2536C14.6661 21.5055 14.6275 21.7574 14.6081 22.0094C14.5792 22.426 14.5599 22.8524 14.6081 23.3078L14.7144 23.8698L14.9461 24.4511L15.2647 24.9065L15.5833 25.3328L16.0371 25.9142L16.3075 26.2146L16.6358 26.5537L17.0124 26.854L17.3889 27.1254L17.862 27.4645L18.2386 27.7067C18.4896 27.8617 18.8758 28.104 19.4069 28.2881L20.0152 28.4431L20.8842 28.5497L22.3808 28.6078L23.1629 28.54L24.0801 28.3462L24.7367 28.0749L25.4126 27.697L25.9919 27.3579L26.3105 27.1544L26.8609 26.5925L27.1699 26.2243L27.5078 25.7979L27.7009 25.5169L28.1837 24.6933L28.5216 23.6566L28.7051 22.8523L28.8113 22.2807L28.8692 21.8834C28.9561 21.273 29.0237 20.6335 28.9948 19.994L28.9078 19.3448L28.5216 18.3177L28.5506 18.3371Z" fill="black"/>
<path d="M35.2804 19.151V18.8313L35.2032 18.3759C35.0294 17.5426 34.6625 16.719 34.3149 15.9148L33.7355 14.6164L33.4266 14.1319L33.2624 13.8897L32.9824 13.4634L32.5672 12.9111L32.2003 12.4944L32.0265 12.3297L31.8914 12.1553L31.6017 11.8259L31.1672 11.3995L30.723 11.0701L30.4527 10.886L30.0858 10.6244L29.7382 10.3531L29.3133 10.043L29.294 10.0236L28.8016 9.60701C28.2802 9.26788 27.7878 9.1322 27.4885 9.03531L27.1795 8.87061L26.8512 8.73494H26.8416L26.6774 8.64777L26.0112 8.3377L24.7753 7.88233L24.2442 7.766L24.0222 7.70787L23.6939 7.611L23.4622 7.54317L21.9559 7.18466C21.4055 7.06839 20.7297 7.01025 19.909 7.0587C19.2331 7.08777 18.5765 7.2331 17.9875 7.35907C17.7172 7.42689 17.4565 7.4947 17.1958 7.5819L16.9447 7.64974L16.3364 7.87263L16.1144 7.9792L16.0371 8.01794L15.0426 8.47337L14.724 8.6865L14.5019 8.80277L14.2992 8.97717L13.5653 9.47134C13.4784 9.44227 13.3915 9.41321 13.295 9.41321C12.9957 9.41321 12.7446 9.58762 12.6287 9.83954L12.1267 10.1302L11.5087 10.7019L11.4218 10.7794L11.1032 11.0895L10.8039 11.448L10.2728 12.1359L9.9735 12.601L9.71282 13.0564L9.51005 13.4246L9.30729 13.7541L9.09487 14.1416C8.83417 14.7036 8.66037 15.285 8.51554 15.8082C8.23553 16.7481 8.1776 17.6007 8.06173 18.4921L8.01345 19.9746V20.1296C7.95552 20.4494 7.90725 20.7789 7.88794 21.1277L7.9169 22.1644L8.0038 22.5617L8.06173 22.8233L8.10036 23.2303L8.13898 23.4822L8.15829 23.705L8.22587 24.3155L8.41898 25.1875L8.55415 25.701L9.02727 27.2611L9.23004 27.8811L9.30729 28.1234L9.42315 28.4334L9.55833 28.7629L9.64522 29.0051L9.75143 29.2474L9.86729 29.5186L10.0701 29.9256L10.2342 30.1872L10.5142 30.6232C10.8039 31.0399 11.1418 31.3112 11.277 31.4178L11.557 31.6794L12.0301 32.1154L12.4646 32.4449L12.5805 32.532L12.8895 32.7646L13.015 32.8518L13.4591 33.1522L14.0771 33.501L14.3281 33.6366L14.6371 33.7917L15.2357 34.0339L16.0661 34.2083L16.4716 34.344L16.7323 34.4215L16.8868 34.4603C17.8523 34.7219 18.7117 34.7412 19.262 34.8962C19.6965 35.0222 20.2759 35.2063 20.971 35.2354H21.9173L22.5835 35.216L22.9408 35.1094L24.0222 35.09L24.8912 35.0513L25.2388 35.0126L25.7602 34.8478L26.0691 34.7412L26.436 34.5474L26.716 34.3924L28.7437 33.3751L29.4678 32.9002L29.7672 32.7065L30.1534 32.503L30.5589 32.2414L31.0224 31.9216L31.5438 31.4662L32.0265 30.9914L32.2196 30.7492L32.5769 30.2163L32.8955 29.7027L33.1369 29.2764L33.5907 28.3463L33.8128 27.9199L33.9866 27.6002L34.1797 27.2223L34.3825 26.7184L34.5273 26.3212L34.6045 26.0305L34.7687 25.5654C35.1549 24.4221 35.319 23.1915 35.3287 21.9513V20.2944L35.2997 19.5773V19.151H35.2804ZM28.9561 30.1872L28.8306 30.3132L28.5409 30.5554L28.1644 30.8267L27.894 31.0011L27.054 31.3596L26.5422 31.6697L26.1657 31.9119L25.9726 31.9894L25.5574 32.1251L25.036 32.3092L24.6594 32.4642L24.6112 32.4836L24.1573 32.5708L23.5877 32.658L23.269 32.7161L22.8539 32.7646L22.458 32.8324C22.2842 32.8712 22.4387 32.8712 22.2842 32.8712H21.0966C20.7393 32.8615 20.3434 32.7452 19.8993 32.6193C18.9917 32.3479 18.1517 32.3189 17.5627 32.1542L17.331 32.0767L17.1185 32.0088L16.6358 31.8829L16.0178 31.7472L15.7378 31.6019L15.4868 31.4565L15.255 31.3209L14.7143 31.0108L14.3667 30.7976L14.0578 30.6135L13.9322 30.5651L13.8067 30.4876L13.546 30.2841L13.0826 29.8674L12.7446 29.6059L12.397 29.2958L12.1846 28.9567L12.0977 28.8113L11.9722 28.5207L11.8853 28.3172L11.8177 28.1525L11.7018 27.8424L11.586 27.5711L11.4991 27.3579L11.3929 27.0479L11.1997 26.5537L10.6977 24.9937L10.5818 24.674L10.437 23.8504L10.3694 23.5209L10.3404 23.1721L10.3114 22.988L10.2439 22.3873L10.157 21.99L10.128 21.8931L10.1473 21.1277L10.3501 19.8293L10.6784 17.998C10.717 17.6879 10.8328 17.4166 11.1225 16.8062L11.866 15.1203L12.2812 14.0448L12.3584 13.9382L12.5032 13.7831L12.6481 13.6184L13.0633 13.1436L13.4688 12.6495L13.6812 12.3878L13.8743 12.1166L14.2122 11.7968L14.5792 11.448L14.8592 11.1864L15.0233 11.012L15.3323 10.6922L15.3516 10.6728L16.0178 10.2756L16.8868 9.86864C17.4179 9.65547 17.8234 9.56827 18.4606 9.4423L18.9048 9.36477L20.5752 9.40351C21.4442 9.43258 22.2166 9.5198 22.8442 9.72327L23.1339 9.83954L23.3173 9.90737L23.8291 10.0721L24.2056 10.1593L25.0263 10.5275L25.5767 10.7794L25.7988 10.886L26.3105 11.0991L26.5229 11.1767L27.5175 11.6127L27.7106 11.7484L28.2126 12.2231L28.5699 12.572L28.9078 12.8529L29.1492 13.0758L29.3133 13.2115L29.632 13.5022L29.7865 13.6766L30.0182 13.9866L30.3272 14.5389L30.7134 15.2365L31.37 17C31.6403 17.872 31.8527 18.5213 31.8431 19.0832V19.9843L31.8045 22.0191C31.8141 22.6973 31.7658 23.3369 31.6113 24.1605C31.4569 25.0906 31.2831 25.982 31.003 26.6603L30.4237 27.8424L30.3272 28.104L29.7768 28.9954L29.5837 29.3248L29.2168 29.8093L29.072 30.0031L28.9465 30.1775L28.9561 30.1872Z" fill="black"/>
<path d="M30.2308 3.40576H30.2404L30.1921 3.39606L30.2308 3.40576Z" fill="black"/>
<path d="M44.8104 15.7791C44.4628 14.2869 43.8738 12.9886 43.3041 11.8065L42.3965 9.97515L41.8751 9.05465L41.5758 8.69615L40.7454 7.66908L40.3592 7.14587L40.0406 6.78734L39.8185 6.56451L39.5288 6.28351L38.3605 5.31457L38.0709 5.04327L37.5977 4.62663L37.1729 4.29717L37.0957 4.23904L36.7674 3.9096L36.3811 3.57047L35.7342 3.11506L35.097 2.75656L34.0445 2.22366L33.5231 1.99112L33.3107 1.86516L32.3065 1.39036L31.5824 1.20629L31.061 1.12876L30.9451 1.09969C30.6458 0.857455 30.4141 0.847757 30.4044 0.847757C30.3948 0.847757 30.6168 0.954341 30.3465 0.81869L30.0858 0.692723L29.7189 0.528021L28.9658 0.372987L28.0099 0.227653C27.4209 0.130759 26.7933 -0.00488281 25.9629 -0.00488281L23.9932 0.0435522L22.0911 0.140452L20.4207 0.34392L18.5669 0.663656L16.9061 0.731489L15.9985 0.702422L13.604 0.925288C12.9957 1.01249 12.5419 1.24502 12.2039 1.39036L11.7115 1.60353L11.3156 1.79733L11.0067 1.97173L10.7073 2.15583L9.46178 2.9213L8.67004 3.5414L7.60793 4.68477L7.54035 4.77197L6.93206 4.8398L6.15962 5.36301L5.57064 5.84747L5.29063 6.10911L5.10718 6.28351L4.87544 6.50634L4.46027 6.90361L4.03542 7.35901L3.60093 7.86288L3.26299 8.30855L2.89609 8.90935L2.77056 9.16122L2.32641 10.072L1.65053 11.7095L1.19672 12.8432C0.916715 13.6474 0.810502 14.4807 0.66567 15.1783L0.404984 16.5736L0.124968 18.8991C0.0187583 20.1296 -0.0295195 21.1567 0.0187577 22.3291L0.269809 24.8774C0.41464 25.9917 0.771885 26.9897 1.13879 27.7939L1.70846 29.3926L1.96916 30.1484L2.37469 31.1561C2.74159 32.0088 3.16644 32.6289 3.49472 33.1909L3.72644 33.5591L4.25749 34.3536L4.49888 34.7024L4.972 35.371L5.42581 35.9232L5.72513 36.243L6.63274 36.931L7.07688 37.2216C7.6369 37.5898 8.34174 38.3165 9.27832 38.956L9.74179 39.2661L10.3308 39.6537C10.8715 39.9831 11.3832 40.1769 11.9143 40.3998L13.9805 41.1749L16.742 42.0857C18.3062 42.5314 20.1021 42.8318 21.898 43.1418C23.4622 43.3647 25.2291 43.3744 26.9285 43.2C28.2609 43.0449 29.632 42.9093 31.0417 42.5702C32.2872 42.2892 33.5424 41.7369 34.7108 41.1943C36.468 40.4094 37.5591 39.1595 38.4184 38.2778C39.8088 36.8825 40.7647 35.6617 41.6047 34.247C42.2517 33.1327 42.8213 31.8537 43.2172 30.4778L43.7386 28.5497L43.9607 27.5904C44.2696 26.2533 44.4724 24.9259 44.6752 23.4434L44.8876 20.9338L44.9938 19.2769C45.0035 18.3274 45.0324 17.0969 44.7814 15.8082L44.8104 15.7791ZM31.2734 1.45819C31.2734 1.45819 31.2445 1.40976 31.2251 1.38069L31.2541 1.40976C31.2541 1.40976 31.2638 1.43881 31.2734 1.45819ZM29.8154 3.31856C29.8154 3.31856 29.8444 3.33793 29.8637 3.33793H29.8348C29.8348 3.33793 29.8348 3.32825 29.8154 3.31856ZM42.3868 19.1994L42.2613 20.711L42.0972 23.0655C41.9137 24.5189 41.7302 25.7785 41.4696 26.98L41.2475 27.8908L40.784 29.7415C40.4654 30.8945 39.9923 31.9991 39.4516 32.968C38.7564 34.247 38.0226 35.2935 36.7867 36.6209C35.8984 37.5608 35.068 38.5006 33.8128 39.0723C32.6638 39.5761 31.5051 40.0509 30.5879 40.235C29.3327 40.4773 28.0678 40.5354 26.6967 40.6226C25.2098 40.7389 23.607 40.6808 22.2842 40.4482C20.5173 40.1963 18.7793 39.9637 17.4179 39.6343L14.753 38.7816L12.8991 38.1034L11.6053 37.4833L11.0742 37.1538L10.6784 36.9019C9.98318 36.4271 9.3073 35.7198 8.44797 35.1481L8.02313 34.8671L7.33758 34.3536L7.23137 34.2567L6.91274 33.8788L6.53618 33.3653L6.27549 32.939L5.80237 32.2123L5.61892 31.9216C5.24235 31.2821 4.89476 30.7879 4.62441 30.1775L4.29612 29.3055L4.04507 28.5497L3.39816 26.7862C3.1085 26.1176 2.8478 25.3425 2.75125 24.5479L2.52918 22.2516C2.50987 21.1857 2.5678 20.3137 2.68367 19.151L3.00228 17.0193L3.2823 15.7694L3.79404 13.7928L4.25749 12.7463L4.87544 11.196L5.2327 10.3628L5.30995 10.2077L5.58995 9.72322L5.73478 9.49068L6.07272 9.02561L6.38169 8.59928L6.60377 8.30855C6.83551 8.30855 7.05758 8.24074 7.24104 8.07602L9.34592 6.30288L10.3597 5.48897L10.8522 5.14017L11.8756 4.6363L12.3294 4.4522L12.6674 4.29717L12.8701 4.1906L13.3433 3.96773L14.0095 3.69643L16.1047 3.51233L16.9158 3.48327L18.8469 3.30886L20.9228 2.9213L22.178 2.7275L24.1477 2.62093L25.9629 2.60153C26.5326 2.60153 26.9671 2.67907 27.614 2.77596L28.5699 2.90193L28.8885 2.95036L29.5644 3.31856L29.8637 3.3767C30.0279 3.42514 30.192 3.44451 30.3658 3.42513C30.2982 3.42513 30.2403 3.43484 30.221 3.44453L30.5589 3.49296L31.1383 3.57047L31.6307 3.66737L32.0072 3.8127L32.3934 4.07433L33.2431 4.49097L33.948 4.7429L34.5563 5.1111L34.9232 5.34364L35.319 5.69244L35.5604 5.86687L35.8404 6.10911L36.2267 6.39008L36.7481 6.78734L36.9315 6.90361L38.0515 7.83378L38.2833 8.07602L38.4764 8.29891L38.7081 8.56048L39.0654 8.98682L39.9923 10.1011L40.1178 10.2464L40.4654 10.9344L41.1992 12.7463C41.6434 13.9381 42.0489 15.1105 42.242 16.3701C42.4061 17.2518 42.3965 18.3274 42.3772 19.2479L42.3868 19.1994Z" fill="black"/>
<path d="M27.8554 25.0131C27.8554 24.9065 27.894 24.7127 27.7878 24.3348C27.392 23.298 26.3588 23.3174 25.6347 23.4627C25.4705 23.5112 25.2967 23.5887 25.1326 23.6856C25.0746 23.7147 25.0167 23.7437 24.9491 23.7825C24.8236 23.8891 24.7464 23.986 24.6788 24.0732C24.3795 24.451 24.3408 24.858 24.3312 25.1584C24.3312 25.3037 24.3505 25.4394 24.3891 25.575C24.3988 25.6525 24.3988 25.7107 24.4181 25.7979C24.727 26.6603 25.5767 26.98 26.2043 26.9897C26.3202 26.9897 26.4361 26.98 26.5519 26.9412L26.9864 26.7959C27.5175 26.5343 27.5561 26.2339 27.5851 26.1854L27.7975 25.6235C27.8554 25.4006 27.9037 25.1003 27.8458 25.0131H27.8554Z" fill="white"/>
<path d="M17.6401 15.5078C16.6939 14.8102 15.5738 14.7908 14.6566 15.2656C14.1352 15.5078 13.7972 15.9148 13.6234 16.2345L13.3241 16.874C13.2565 17.0871 13.1793 17.3584 13.1889 17.6588C13.1889 17.6588 13.102 17.872 13.2469 18.3274C13.411 18.9087 13.6717 19.1607 13.9131 19.2963C13.9807 19.4126 14.0579 19.5288 14.1642 19.6354C14.6566 20.1102 15.1007 20.1393 15.5449 20.1974C15.7476 20.1974 16.0276 20.2168 16.3463 20.1199H16.4332C16.6649 20.0908 17.0704 20.023 17.4084 19.7227C18.1905 19.2382 18.4608 18.4146 18.5284 17.7848C18.5574 17.5329 18.6346 17.0775 18.4222 16.5058C18.2291 16.0213 17.9105 15.7113 17.6111 15.5078H17.6401Z" fill="white"/>
<path d="M11.8952 7.42689L12.1752 7.67882L12.378 7.87262C12.5035 7.99858 12.6193 8.19235 12.629 8.33769V9.27753H12.6097C12.6097 9.27753 12.5421 9.3454 12.5035 9.38416C12.4745 9.42292 12.4455 9.46167 12.4262 9.50043C12.3973 9.54887 12.378 9.58765 12.3683 9.63609C12.3683 9.65547 12.349 9.67485 12.3393 9.69423C12.3393 9.72329 12.3393 9.75233 12.3393 9.7814C12.3393 9.81047 12.32 9.83956 12.32 9.86863C12.32 9.88801 12.3297 9.90738 12.3297 9.92676C12.3297 9.97521 12.349 10.0236 12.3586 10.0721C12.3683 10.1205 12.3876 10.1593 12.4069 10.198C12.4262 10.2368 12.4552 10.2755 12.4842 10.3143C12.5131 10.3531 12.5421 10.3822 12.5807 10.4209C12.6193 10.45 12.658 10.479 12.6966 10.4984C12.7449 10.5275 12.7835 10.5468 12.8318 10.5565C12.8511 10.5565 12.8704 10.5759 12.8897 10.5856C13.5173 10.731 13.807 10.2175 13.8649 10.0624C14.0001 9.80081 14.029 9.55854 14.0387 9.29693L14.0194 8.17299C13.9518 7.60132 13.6525 7.16528 13.3725 6.88429L13.1214 6.64205L12.7835 6.35138L12.3586 6.02192L12.1173 5.82815L11.7021 5.62468C11.6152 5.58592 11.6152 5.59559 11.5862 5.39212L11.5476 4.22941C11.5476 3.84183 11.229 3.54144 10.8524 3.54144C10.4662 3.54144 10.1669 3.8612 10.1669 4.24878C10.1669 4.71387 10.1475 5.15959 10.2151 5.62468C10.2924 6.08977 10.5917 6.64206 11.1227 6.89399L11.3448 6.99086L11.4993 7.12652L11.8759 7.43659L11.8952 7.42689Z" fill="#DB2436"/>
<path d="M8.24532 23.3368C8.15842 23.3852 8.06186 23.4434 7.98461 23.5403C7.8784 23.6275 7.88806 23.705 7.86875 23.7147L7.50184 23.9763L7.25081 24.1313L6.93217 24.3348C6.45906 24.6546 6.01491 25.0421 5.69628 25.4006L5.44524 25.701L5.25212 26.0014C5.25212 26.0014 5.00108 26.2242 4.98177 26.7572C5.0397 27.3967 5.36799 27.4935 5.43558 27.5807L5.67696 27.9295C5.77352 28.1718 5.72524 28.9179 5.05902 29.4411C4.75004 29.6737 4.69211 30.1193 4.92384 30.4197C5.15557 30.7298 5.59973 30.7976 5.9087 30.5554C7.0577 29.6833 7.38599 28.3462 7.02873 27.3966C6.91287 27.0769 6.73907 26.8347 6.57493 26.6312L6.61354 26.5828L6.76803 26.4084L7.79151 25.5944L8.06186 25.42L8.34188 25.2456L8.69912 25.0131L8.90188 24.858C9.21085 24.7611 9.51018 24.5286 9.60674 24.1701C9.65501 23.9957 9.63569 23.8116 9.56811 23.6469C9.22051 22.8426 8.62188 22.9493 8.24532 23.3174V23.3368Z" fill="#DB2436"/>
<path d="M19.1464 50.8546C19.1464 50.8546 19.1271 50.8546 19.1174 50.8546C19.0498 50.8837 19.0016 50.9128 18.9243 50.9321L19.1464 50.8449V50.8546Z" fill="#DB2436"/>
<path d="M42.5801 23.5209C42.4546 23.1721 42.0683 22.988 41.7111 23.114C41.0835 23.3465 40.4076 23.6857 40.0503 23.6566L39.6835 23.5888L38.882 23.0559L38.4476 22.7942L38.0227 22.4745L37.7234 22.3098L37.2986 22.1548L36.6323 22.0772C36.2075 22.0482 35.7054 22.0288 35.1744 22.2032C34.9909 22.2613 34.7206 22.3001 34.4212 22.5617C34.2185 22.7361 34.1412 22.9396 34.1026 23.0268C34.0736 23.0946 34.0543 23.1722 34.0447 23.2497L34.064 23.6179L34.1219 24.2089C34.1702 24.4802 34.3923 24.6837 34.6626 24.7128C35.0102 24.7515 35.3192 24.5093 35.3578 24.1605L35.3771 23.802V23.7826C35.3771 23.7826 35.4351 23.6954 35.4544 23.6469L35.5992 23.5985C35.8889 23.5016 36.1689 23.5016 36.5358 23.5306L36.9799 23.5888L37.1055 23.6372L37.2406 23.7147L37.5979 23.9861L38.2158 24.3349L39.0172 24.8484C39.3359 25.0228 39.6545 25.0712 39.9731 25.0906C40.9869 25.1391 41.7787 24.548 42.2132 24.3639C42.5415 24.2186 42.7056 23.8504 42.5801 23.5112V23.5209Z" fill="#DB2436"/>
<path d="M34.5273 3.46391C34.2762 3.21198 33.8611 3.21198 33.61 3.46391C32.9148 4.17123 32.8859 5.11109 32.7024 5.63431L32.5769 5.94438L32.3065 6.29321L31.8334 6.45792L31.4472 6.48698L30.8389 6.61295L30.3272 6.90362C29.9989 7.15554 29.7671 7.51406 29.603 7.91132C29.323 8.59927 29.2844 9.38414 29.2264 10.0624L29.2651 11.4673C29.3037 11.7774 29.5644 12.0196 29.883 12.0196C30.2306 12.0196 30.5106 11.7386 30.5106 11.3995L30.6458 10.1302C30.6941 9.51974 30.7617 8.80277 30.9161 8.42489L31.1768 7.97915L31.2831 7.91132L31.6113 7.86289L31.9686 7.83379C32.3741 7.79503 32.7217 7.6594 33.0114 7.48499L33.3204 7.21372L33.7066 6.72922L34.0252 6.07035C34.2473 5.33396 34.3149 4.646 34.5562 4.39408C34.788 4.13246 34.7783 3.73521 34.5273 3.49297V3.46391Z" fill="#DB2436"/>
<path d="M31.0129 32.5126C30.9067 32.4642 30.8005 32.4351 30.6943 32.4351C30.617 32.4351 30.5494 32.4351 30.5012 32.4351C30.3563 32.3479 30.1729 32.3188 29.9991 32.3769L29.1301 32.7257L27.6818 33.4621L26.919 33.7431L25.9438 34.1017L25.8086 34.1501L25.6734 34.1985L25.6155 34.2179C25.5286 34.0532 25.3838 33.8691 25.1231 33.7722C24.7562 33.6269 24.4375 33.7528 24.1962 33.8885C24.0706 33.9563 23.9837 34.0629 23.9258 34.1888C23.8196 34.1598 23.7037 34.1598 23.5879 34.1888L22.9409 34.2276H22.4195L20.9712 34.0726L20.1409 34.0144L19.7547 33.9176L19.6484 33.8109C19.6484 33.8109 19.6678 33.8497 19.6967 33.8788C19.6098 33.7334 19.465 33.6366 19.3008 33.5978C19.1367 33.5687 18.9822 33.5978 18.847 33.685L18.2677 33.5397H17.9298C17.8332 33.5106 17.7367 33.4912 17.6401 33.5106C17.5436 33.5203 17.4567 33.5494 17.3891 33.5978C17.2732 33.5687 17.167 33.5494 17.0318 33.53L16.7422 33.5106C16.4911 33.4621 16.2304 33.5397 16.0373 33.7141C15.9504 33.7916 15.8828 33.8788 15.8345 33.9757C15.5932 33.8497 15.3614 33.7238 15.149 33.6172C15.0331 33.5688 15.0042 33.2684 14.3669 33.4331L14.1738 33.4718C14.1738 33.4718 14.1738 33.4718 14.1835 33.4718C14.1738 33.4718 14.1641 33.4718 14.1545 33.4815C14.1255 33.4815 14.0966 33.5009 14.0579 33.5106C14.0097 33.53 13.971 33.5493 13.9324 33.5687L13.7393 33.404L13.4883 33.1909L13.1986 32.9098L13.16 32.8808L13.0345 32.5998C12.9476 32.3866 12.7738 32.2316 12.5517 32.1541H12.5131L12.4745 32.1057C12.2524 31.9506 11.9531 31.9603 11.7406 32.1347C11.5186 32.3091 11.4606 32.5998 11.5572 32.8517C11.5475 33.0746 11.6248 33.2974 11.7889 33.4524L11.9241 33.5494L12.1172 33.8497L12.571 34.2858L12.8703 34.5086L13.0827 34.6733L13.2855 34.8865L13.5462 35.1093L14.1159 35.4291L14.2897 35.4678L14.3862 35.5357L14.6759 35.7198L15.5256 36.2527L16.1725 36.4852L16.4042 36.5627L16.5587 36.7953C16.6359 37.0569 16.7325 37.2991 16.8484 37.5026L16.9546 37.803L17.1187 38.3262L17.2346 38.5588C17.1284 38.9948 17.1573 39.363 17.1573 39.644C17.167 39.8281 17.1573 40.1381 17.3698 40.5451C17.4277 40.6516 17.5049 40.7485 17.5918 40.8357C17.698 40.9326 17.8525 41.0586 18.0456 41.1458C18.007 41.2039 17.978 41.2621 17.9587 41.3202C17.8718 41.6303 18.0263 41.9404 18.2967 42.076C18.2967 42.1051 18.287 42.1341 18.2774 42.1826L18.0939 44.198L17.8525 45.9227L17.8042 46.3975L17.7463 46.6203L17.6691 46.911L17.5918 47.1048L17.3891 47.347L17.1766 47.8121L17.0704 48.3644L17.0318 49.0524L17.0028 49.4399C17.0318 50.0309 17.3311 50.3604 17.5146 50.5639C17.5725 50.6317 17.6401 50.6899 17.7174 50.748C18.0456 50.9709 18.6539 51.1065 19.1174 50.874C19.6291 50.6802 19.7933 50.3314 19.9285 50.1473L20.2278 49.624L20.305 49.4302C20.3726 49.2752 20.6623 48.9457 20.7202 48.471L20.7974 47.6571C20.7492 47.3276 20.614 47.1048 20.4981 46.9304L20.2954 46.6688L20.1988 46.5137L19.996 46.2134L19.8802 45.9324C19.8416 45.3704 19.8802 44.8375 19.8609 44.1398L19.8898 43.6166V42.8124L19.8512 42.076L19.8319 41.3783L19.774 41.0683C19.7353 40.5839 19.6678 40.0897 19.5133 39.6149C19.4746 39.4987 19.4071 39.4114 19.3298 39.3339V39.0626L19.4553 38.8591L19.6098 38.5394L19.6967 38.3941L19.8995 38.2778L20.2085 38.1421L20.6333 37.9677L20.7202 38.0065L21.174 38.1615L21.734 38.2874C22.1782 38.3843 22.6416 38.4037 23.1051 38.3941L23.6361 38.3456C23.5492 38.6847 23.5686 38.9657 23.5879 39.1886C23.6458 39.7893 23.9354 40.2253 24.2444 40.6129C24.2444 40.8067 24.2541 41.0005 24.2734 41.1846C24.2251 41.2524 24.1961 41.3396 24.1865 41.4268V41.6109C24.1865 41.6109 24.1865 41.6303 24.1865 41.64C24.1865 41.6497 24.1865 41.6594 24.1865 41.6691V41.7368C24.1865 41.7368 24.2155 41.8144 24.2251 41.8532C24.2348 41.8919 24.2444 41.9307 24.2637 41.9694C24.283 42.0179 24.3217 42.0663 24.3603 42.105C24.3796 42.1341 24.3989 42.1632 24.4279 42.1923C24.4279 42.1923 24.4375 42.2117 24.4472 42.2117C24.6017 42.9481 24.8238 43.6166 25.0362 44.227C24.9976 44.4886 24.872 44.7697 24.7369 45.1088L24.4665 45.8355C24.3989 46.1262 24.3989 46.4265 24.4955 46.7753C24.621 47.1532 24.8527 47.3082 24.93 47.3761C25.0072 47.4536 25.1617 47.6861 25.5672 47.8605L26.3493 47.9575C26.6293 47.909 26.9576 47.754 27.0928 47.5214C27.4887 47.0273 27.2762 46.7366 27.2666 46.6009C27.2666 46.5815 27.2666 46.5622 27.2569 46.5428C27.4211 46.2909 27.5756 45.9711 27.6142 45.5545V44.9828L27.4887 44.2174L27.3728 43.8104L27.0059 43.1709C26.89 43.0256 26.9769 43.1903 26.919 43.0837L26.8128 42.8317V42.8511L26.7742 42.6476C26.7742 42.6476 26.8031 42.5508 26.8128 42.5023L26.8321 41.9306L26.7548 41.5721V40.671L26.8417 39.9443L27.1314 38.6556L27.3631 37.648V37.6092L27.4887 37.4833L27.8556 37.0278L27.8749 37.0085L28.0776 36.9406L28.6666 36.6499L29.3715 36.0977L29.6804 35.8069L30.057 35.3613L30.3177 35.0028L30.5494 34.5958L31.1481 34.0435L31.3895 33.7141C31.4377 33.6172 31.8336 33.5009 31.3412 32.8033C31.2639 32.687 31.1481 32.5998 31.0225 32.5319L31.0129 32.5126Z" fill="#DB2436"/>
</svg>
